<svg width="64" height="64" viewBox="0 0 64 64" fill="none" xmlns="http://www.w3.org/2000/svg">
<path d="M55.8587 22.1466C55.8318 20.1269 55.4537 18.1273 54.7413 16.2372C54.1236 14.643 53.1801 13.1951 51.9711 11.9861C50.7621 10.7771 49.3143 9.83362 47.72 9.21589C45.8542 8.5155 43.8831 8.1368 41.8907 8.09589C39.3253 7.98122 38.512 7.94922 32 7.94922C25.488 7.94922 24.6533 7.94922 22.1067 8.09589C20.1151 8.1371 18.1449 8.5158 16.28 9.21589C14.6855 9.83319 13.2374 10.7765 12.0284 11.9856C10.8193 13.1946 9.87598 14.6427 9.25867 16.2372C8.55689 18.1016 8.179 20.0722 8.14134 22.0639C8.02667 24.6319 7.992 25.4452 7.992 31.9572C7.992 38.4692 7.992 39.3012 8.14134 41.8506C8.18134 43.8452 8.55734 45.8132 9.25867 47.6826C9.87701 49.2766 10.8211 50.7241 12.0305 51.9326C13.2399 53.1411 14.6882 54.0841 16.2827 54.7012C18.1425 55.4297 20.113 55.8356 22.1093 55.9012C24.6773 56.0159 25.4907 56.0505 32.0027 56.0505C38.5147 56.0505 39.3493 56.0505 41.896 55.9012C43.8884 55.862 45.8596 55.4842 47.7253 54.7839C49.3192 54.1654 50.7667 53.2217 51.9756 52.0128C53.1845 50.8039 54.1282 49.3564 54.7467 47.7626C55.448 45.8959 55.824 43.9279 55.864 41.9306C55.9787 39.3652 56.0133 38.5519 56.0133 32.0372C56.008 25.5252 56.008 24.6986 55.8587 22.1466ZM31.984 44.2719C25.1733 44.2719 19.656 38.7546 19.656 31.9439C19.656 25.1332 25.1733 19.6159 31.984 19.6159C35.2536 19.6159 38.3893 20.9147 40.7012 23.2267C43.0132 25.5386 44.312 28.6743 44.312 31.9439C44.312 35.2135 43.0132 38.3491 40.7012 40.6611C38.3893 42.973 35.2536 44.2719 31.984 44.2719ZM44.8027 22.0346C44.4251 22.0349 44.0511 21.9608 43.7022 21.8164C43.3532 21.6721 43.0362 21.4604 42.7692 21.1934C42.5022 20.9264 42.2905 20.6093 42.1461 20.2604C42.0018 19.9115 41.9277 19.5375 41.928 19.1599C41.928 18.7826 42.0023 18.4089 42.1467 18.0603C42.2911 17.7117 42.5028 17.3949 42.7696 17.1281C43.0364 16.8613 43.3532 16.6497 43.7018 16.5053C44.0504 16.3609 44.424 16.2866 44.8013 16.2866C45.1787 16.2866 45.5523 16.3609 45.9009 16.5053C46.2495 16.6497 46.5663 16.8613 46.8331 17.1281C47.0999 17.3949 47.3116 17.7117 47.456 18.0603C47.6004 18.4089 47.6747 18.7826 47.6747 19.1599C47.6747 20.7492 46.3893 22.0346 44.8027 22.0346Z" fill="#FBFBFB"/>
<path d="M31.984 39.952C36.4067 39.952 39.992 36.3667 39.992 31.944C39.992 27.5213 36.4067 23.936 31.984 23.936C27.5613 23.936 23.976 27.5213 23.976 31.944C23.976 36.3667 27.5613 39.952 31.984 39.952Z" fill="#FBFBFB"/>
</svg>
