<svg width="64" height="64" viewBox="0 0 64 64" fill="none" xmlns="http://www.w3.org/2000/svg">
<path d="M57.6 20.3969V29.2289C55.9953 28.7198 54.2817 28.6616 52.6462 29.0606C51.0107 29.4596 49.5163 30.3005 48.3264 31.4913L32.8704 46.9473C31.6831 48.1351 30.8061 49.5967 30.3168 51.2033H14.4C12.2783 51.2033 10.2434 50.3604 8.74314 48.8602C7.24285 47.3599 6.39999 45.325 6.39999 43.2033V20.3969L31.1904 34.9825C31.4363 35.1271 31.7163 35.2034 32.0016 35.2034C32.2868 35.2034 32.5669 35.1271 32.8128 34.9825L57.6 20.3969ZM49.6 9.6033C51.5685 9.60299 53.4679 10.3284 54.9351 11.6409C56.4022 12.9533 57.3339 14.7606 57.552 16.7169L32 31.7441L6.44799 16.7169C6.66537 14.76 7.59678 12.9519 9.06396 11.6389C10.5311 10.3258 12.431 9.59988 14.4 9.6001H49.6V9.6033ZM35.136 49.2065L50.592 33.7505C51.148 33.195 51.8079 32.7544 52.5341 32.4539C53.2604 32.1534 54.0387 31.9988 54.8247 31.9991C55.6106 31.9994 56.3888 32.1545 57.1148 32.4556C57.8408 32.7566 58.5004 33.1977 59.056 33.7537C59.6115 34.3097 60.0521 34.9696 60.3526 35.6958C60.6531 36.4221 60.8076 37.2004 60.8073 37.9864C60.807 38.7723 60.6519 39.5505 60.3509 40.2765C60.0499 41.0025 59.6088 41.6622 59.0528 42.2177L43.5968 57.6705C42.6964 58.5713 41.5682 59.2106 40.3328 59.5201L35.5392 60.7169C35.0625 60.8357 34.5633 60.8292 34.0899 60.698C33.6165 60.5668 33.1851 60.3154 32.8376 59.9682C32.4901 59.621 32.2383 59.1898 32.1067 58.7166C31.975 58.2433 31.9681 57.7441 32.0864 57.2673L33.2864 52.4737C33.5933 51.2372 34.233 50.1084 35.136 49.2097V49.2065Z" fill="#FBFBFB"/>
</svg>
