<?xml version="1.0" encoding="utf-8"?>
<!-- Generator: Adobe Illustrator 23.0.1, SVG Export Plug-In . SVG Version: 6.00 Build 0)  -->
<svg version="1.1" id="Calque_1" xmlns="http://www.w3.org/2000/svg" xmlns:xlink="http://www.w3.org/1999/xlink" x="0px" y="0px"
	 viewBox="0 0 180 180" style="enable-background:new 0 0 180 180;" xml:space="preserve">
<style type="text/css">
	.st0{fill:#586A89;}
	.st1{fill:#F58129;}
</style>
<g>
	<path class="st0" d="M47.1,22.4l2.1-1.2l4.2,7.3l4.5-2.6l1,1.7l-6.6,3.8L47.1,22.4z"/>
	<path class="st0" d="M66.5,22.3l0.7,1.8l-7.4,3.1l-4-9.6l7.2-3l0.7,1.8l-5,2.1l0.9,2.1l4.4-1.9l0.7,1.7l-4.4,1.8l0.9,2.2L66.5,22.3
		z"/>
	<path class="st0" d="M80,10.5l1.9,10.2L80,21l-6.2-5.2l1.1,6.2l-2.3,0.4l-1.9-10.2l1.9-0.4l6.2,5.2l-1.1-6.2L80,10.5z"/>
	<path class="st0" d="M90.7,18.1l-4.8,0.1l-0.9,2.2l-2.5,0.1L87,10l2.4-0.1l4.9,10.3l-2.5,0.1L90.7,18.1z M89.9,16.3l-1.7-3.9
		l-1.6,4L89.9,16.3z"/>
	<path class="st0" d="M102.3,19.1l-4.8-0.7l-1.2,2.1l-2.4-0.3l6-9.6l2.3,0.3l3.2,10.9l-2.5-0.3L102.3,19.1z M101.8,17.2l-1.1-4.2
		l-2.2,3.7L101.8,17.2z"/>
	<path class="st0" d="M118.2,15l-3.1,9.9l-1.9-0.6l-3.1-7.5l-1.9,6l-2.3-0.7l3.1-9.9l1.9,0.6l3.1,7.5l1.9-6L118.2,15z"/>
	<path class="st0" d="M121.3,16.3l2.2,1l-4.2,9.5l-2.2-1L121.3,16.3z"/>
	<path class="st0" d="M127.6,21.5l-1.4,2.4l4.2,2.4l-1,1.7l-4.2-2.4l-1.9,3.3l-2.1-1.2l5.1-9l6.8,3.9l-1,1.7L127.6,21.5z"/>
	<path class="st0" d="M135.2,24l2,1.4l-6,8.5l-2-1.4L135.2,24z"/>
	<path class="st0" d="M138.5,34.5l-2,0.2l-1.7,2L133,35l6.9-7.8l1.8,1.6l-3.2,3.6l6.6-0.6l2,1.8l-6.3,0.6l-0.4,7.3l-2.1-1.9
		L138.5,34.5z"/>
	<path class="st1" d="M145.8,43.7c0.1-0.5,0.3-0.9,0.7-1.3c0.4-0.3,0.9-0.5,1.4-0.4c0.5,0.1,0.9,0.3,1.2,0.7
		c0.3,0.4,0.5,0.9,0.4,1.4c-0.1,0.5-0.3,0.9-0.7,1.3c-0.4,0.3-0.9,0.5-1.4,0.4c-0.5-0.1-0.9-0.3-1.2-0.7
		C145.8,44.7,145.7,44.2,145.8,43.7z"/>
	<path class="st0" d="M157.4,50.6l-2.4,1.3l2.4,4.2l-1.7,0.9l-2.4-4.2l-3.3,1.9l-1.2-2.1l9-5.1l3.9,6.8l-1.7,0.9L157.4,50.6z"/>
	<path class="st0" d="M154.6,62.3c0.1-1,0.5-1.8,1.1-2.6c0.6-0.7,1.4-1.3,2.3-1.7c0.9-0.4,1.9-0.5,2.8-0.3c0.9,0.2,1.8,0.6,2.5,1.2
		c0.7,0.6,1.3,1.5,1.7,2.5c0.4,1,0.5,2,0.4,3s-0.5,1.8-1.1,2.6c-0.6,0.8-1.4,1.3-2.3,1.7c-0.9,0.4-1.9,0.5-2.8,0.3
		c-0.9-0.2-1.8-0.6-2.5-1.2c-0.7-0.6-1.3-1.5-1.7-2.5C154.6,64.3,154.4,63.3,154.6,62.3z M157.8,66c0.4,0.4,0.9,0.6,1.5,0.7
		s1.2,0,1.8-0.2c0.6-0.2,1.1-0.6,1.5-1c0.4-0.4,0.6-0.9,0.7-1.5c0.1-0.6,0-1.1-0.2-1.7c-0.2-0.6-0.5-1-1-1.4
		c-0.4-0.4-0.9-0.6-1.5-0.7c-0.6-0.1-1.2,0-1.8,0.2c-0.6,0.2-1.1,0.6-1.5,1c-0.4,0.4-0.6,0.9-0.7,1.5c-0.1,0.6,0,1.1,0.2,1.7
		C157.1,65.1,157.4,65.6,157.8,66z"/>
	<path class="st0" d="M158.4,73.9c0.3-0.9,0.8-1.7,1.5-2.4c0.7-0.6,1.6-1,2.6-1.2c1-0.2,1.9-0.1,2.8,0.2c0.9,0.3,1.6,0.9,2.3,1.6
		c0.6,0.8,1,1.7,1.2,2.7c0.2,1.1,0.2,2-0.1,3c-0.3,0.9-0.8,1.7-1.5,2.4c-0.7,0.6-1.6,1.1-2.6,1.2s-1.9,0.1-2.8-0.2
		c-0.9-0.3-1.6-0.9-2.3-1.6c-0.6-0.8-1-1.7-1.2-2.7C158,75.8,158.1,74.8,158.4,73.9z M161,78c0.4,0.4,0.8,0.7,1.4,0.9
		c0.5,0.2,1.1,0.2,1.8,0.1c0.6-0.1,1.2-0.4,1.6-0.7c0.4-0.4,0.8-0.8,0.9-1.4c0.2-0.5,0.2-1.1,0.1-1.7c-0.1-0.6-0.4-1.1-0.7-1.5
		c-0.4-0.4-0.8-0.7-1.4-0.9c-0.5-0.2-1.1-0.2-1.8-0.1c-0.6,0.1-1.2,0.4-1.6,0.7c-0.4,0.4-0.8,0.8-0.9,1.4c-0.2,0.5-0.2,1.1-0.1,1.7
		C160.4,77.1,160.6,77.6,161,78z"/>
	<path class="st0" d="M169.9,83.6l0.1,4.7c0,1.1-0.2,2.1-0.6,3c-0.4,0.9-1,1.6-1.8,2c-0.8,0.5-1.7,0.7-2.7,0.8c-1,0-1.9-0.2-2.7-0.7
		c-0.8-0.5-1.4-1.1-1.9-2c-0.4-0.9-0.7-1.8-0.7-3l-0.1-4.7L169.9,83.6z M161.6,88.3c0,1,0.3,1.9,0.9,2.5c0.6,0.6,1.4,0.9,2.4,0.9
		c1,0,1.8-0.3,2.3-1c0.6-0.6,0.8-1.5,0.8-2.5l0-2.2l-6.4,0.1L161.6,88.3z"/>
	<path class="st0" d="M167.6,98.7l0.4-3.3l1.9,0.2l-1.1,9l-1.9-0.2l0.4-3.3l-8.3-1.1l0.3-2.4L167.6,98.7z"/>
	<path class="st0" d="M156.6,110.6l3.3-1.2l0-0.1l0.5-2l-2.8-0.8l0.6-2.3l10,2.7l-1.2,4.3c-0.2,0.9-0.6,1.6-1.1,2.2
		c-0.5,0.6-1,1-1.7,1.2c-0.6,0.2-1.3,0.2-2.1,0c-0.7-0.2-1.3-0.6-1.8-1.1c-0.4-0.5-0.7-1.1-0.8-1.9l-3.8,1.4L156.6,110.6z
		 M164.4,112.1c0.4-0.3,0.7-0.8,0.9-1.5l0.5-1.9l-3.5-0.9l-0.5,1.9c-0.2,0.7-0.2,1.3,0,1.7c0.2,0.4,0.6,0.7,1.1,0.9
		C163.5,112.5,164,112.4,164.4,112.1z"/>
	<path class="st0" d="M155.9,115.8c1.1-0.4,2.3-0.3,3.7,0.3l5.3,2.4l-1,2.2l-5.2-2.3c-1.7-0.8-2.9-0.4-3.5,1
		c-0.3,0.7-0.3,1.3-0.1,1.8c0.2,0.5,0.8,1,1.7,1.4l5.2,2.3l-1,2.2l-5.3-2.4c-1.4-0.6-2.3-1.5-2.7-2.6c-0.4-1.1-0.3-2.3,0.3-3.7
		C154,117.1,154.8,116.3,155.9,115.8z"/>
	<path class="st0" d="M149.9,126.6c0.9-0.5,1.8-0.7,2.7-0.6c0.9,0,1.9,0.3,2.7,0.9c0.9,0.6,1.5,1.3,1.9,2.1c0.4,0.9,0.6,1.8,0.5,2.7
		c-0.1,1-0.4,1.9-1,2.8c-0.5,0.8-1.1,1.3-1.7,1.8c-0.7,0.4-1.4,0.7-2.1,0.8l-0.3-2.1c1.1-0.1,1.9-0.6,2.4-1.5
		c0.4-0.5,0.5-1.1,0.6-1.7c0-0.6-0.1-1.1-0.3-1.6s-0.7-0.9-1.2-1.3c-0.5-0.4-1.1-0.5-1.7-0.6c-0.6,0-1.1,0.1-1.6,0.3
		c-0.5,0.3-0.9,0.7-1.3,1.2c-0.6,0.9-0.7,1.8-0.4,2.9l-2,0.5c-0.2-0.7-0.3-1.5-0.1-2.3c0.1-0.8,0.4-1.6,0.9-2.3
		C148.3,127.7,149.1,127.1,149.9,126.6z"/>
	<path class="st0" d="M145.3,138.8l-0.2-2l-2-1.7l1.6-1.8l7.7,6.9l-1.6,1.8l-3.6-3.2l0.5,6.6l-1.8,2l-0.6-6.3l-7.3-0.4l1.9-2.1
		L145.3,138.8z"/>
	<path class="st1" d="M136,146c0.5,0.1,0.9,0.3,1.3,0.7c0.3,0.4,0.5,0.9,0.4,1.4c-0.1,0.5-0.3,0.9-0.7,1.2c-0.4,0.3-0.9,0.5-1.4,0.4
		c-0.5-0.1-0.9-0.3-1.3-0.7c-0.3-0.4-0.5-0.9-0.4-1.4c0.1-0.5,0.3-0.9,0.7-1.2C135.1,146,135.5,145.9,136,146z"/>
	<path class="st0" d="M132.1,158.1l-2.1,1.2l-4.1-7.3l-4.5,2.6l-1-1.7l6.6-3.7L132.1,158.1z"/>
	<path class="st0" d="M112.8,158l-0.7-1.8l7.4-3l3.9,9.6l-7.3,2.9l-0.7-1.8l5.1-2l-0.8-2.1l-4.5,1.8l-0.7-1.7l4.5-1.8l-0.9-2.2
		L112.8,158z"/>
	<path class="st0" d="M99.1,169.6l-1.8-10.2l1.9-0.3l6.2,5.3l-1.1-6.2l2.3-0.4l1.8,10.2l-2,0.3l-6.1-5.3l1.1,6.2L99.1,169.6z"/>
	<path class="st0" d="M88.4,161.9l4.8-0.1l0.9-2.2l2.5,0L92.1,170l-2.4,0l-4.8-10.3l2.5,0L88.4,161.9z M89.2,163.7l1.7,3.9l1.6-4
		L89.2,163.7z"/>
	<path class="st0" d="M76.8,160.7l4.8,0.7l1.2-2.1l2.4,0.4l-6.1,9.6l-2.3-0.4l-3-10.9l2.5,0.4L76.8,160.7z M77.3,162.6l1,4.2
		l2.2-3.7L77.3,162.6z"/>
	<path class="st0" d="M60.9,164.7l3.2-9.9l1.9,0.6l3,7.6l1.9-6l2.3,0.7l-3.2,9.9l-1.9-0.6l-3-7.6l-1.9,6L60.9,164.7z"/>
	<path class="st0" d="M57.8,163.3l-2.2-1l4.3-9.4l2.2,1L57.8,163.3z"/>
	<path class="st0" d="M51.6,158l1.4-2.4l-4.1-2.4l1-1.7L54,154l1.9-3.3l2.1,1.2l-5.2,8.9l-6.8-4l1-1.7L51.6,158z"/>
	<path class="st0" d="M44,155.5l-1.9-1.4l6.1-8.4l1.9,1.4L44,155.5z"/>
	<path class="st0" d="M40.8,144.9l2-0.1l1.8-1.9l1.8,1.6l-7,7.7l-1.8-1.6l3.3-3.6l-6.6,0.5l-2-1.8l6.3-0.5l0.5-7.3l2.1,1.9
		L40.8,144.9z"/>
	<path class="st1" d="M33.7,135.6c-0.1,0.5-0.3,0.9-0.7,1.3c-0.4,0.3-0.9,0.5-1.4,0.4c-0.5-0.1-0.9-0.3-1.2-0.7
		c-0.3-0.4-0.4-0.9-0.4-1.4c0.1-0.5,0.3-0.9,0.7-1.2c0.4-0.3,0.9-0.5,1.4-0.4c0.5,0.1,0.9,0.3,1.2,0.7
		C33.6,134.7,33.8,135.1,33.7,135.6z"/>
	<path class="st0" d="M22.1,128.6l2.4-1.3l-2.3-4.2l1.7-0.9l2.3,4.2l3.3-1.8l1.2,2.1l-9.1,5l-3.8-6.9l1.7-0.9L22.1,128.6z"/>
	<path class="st0" d="M25.1,116.9c-0.1,1-0.5,1.8-1.1,2.6c-0.6,0.7-1.4,1.3-2.3,1.6s-1.9,0.4-2.8,0.3c-0.9-0.2-1.8-0.6-2.5-1.2
		c-0.7-0.7-1.3-1.5-1.7-2.5c-0.4-1-0.5-2-0.3-3c0.1-1,0.5-1.8,1.1-2.6c0.6-0.7,1.4-1.3,2.3-1.6c1-0.4,1.9-0.4,2.8-0.3
		c0.9,0.2,1.8,0.6,2.5,1.2c0.7,0.6,1.3,1.5,1.7,2.5C25.1,114.9,25.3,115.9,25.1,116.9z M21.9,113.2c-0.4-0.4-0.9-0.6-1.5-0.7
		c-0.6-0.1-1.2,0-1.8,0.2c-0.6,0.2-1.1,0.6-1.5,1c-0.4,0.4-0.6,0.9-0.7,1.5s0,1.1,0.2,1.7c0.2,0.6,0.5,1,1,1.4
		c0.4,0.4,0.9,0.6,1.5,0.7c0.6,0.1,1.2,0,1.8-0.2c0.6-0.2,1.1-0.6,1.5-1c0.4-0.4,0.6-0.9,0.7-1.5c0.1-0.6,0-1.1-0.2-1.7
		C22.6,114.1,22.3,113.6,21.9,113.2z"/>
	<path class="st0" d="M21.5,105.3c-0.3,0.9-0.8,1.7-1.5,2.3c-0.7,0.6-1.6,1-2.6,1.2c-1,0.2-1.9,0.1-2.8-0.2
		c-0.9-0.3-1.6-0.9-2.2-1.7c-0.6-0.8-1-1.7-1.2-2.7s-0.1-2.1,0.2-3c0.3-0.9,0.8-1.7,1.5-2.3c0.7-0.6,1.6-1,2.6-1.2
		c1-0.2,1.9-0.1,2.8,0.2c0.9,0.3,1.6,0.9,2.2,1.7c0.6,0.8,1,1.7,1.2,2.7S21.8,104.4,21.5,105.3z M18.9,101.1
		c-0.4-0.4-0.8-0.7-1.4-0.9c-0.5-0.2-1.1-0.2-1.8-0.1c-0.6,0.1-1.2,0.4-1.6,0.7c-0.4,0.4-0.8,0.8-1,1.4c-0.2,0.5-0.2,1.1-0.1,1.7
		c0.1,0.6,0.3,1.1,0.7,1.6c0.4,0.4,0.8,0.7,1.4,0.9c0.5,0.2,1.1,0.2,1.8,0.1c0.6-0.1,1.2-0.4,1.6-0.7s0.8-0.8,1-1.4
		c0.2-0.5,0.2-1.1,0.1-1.7C19.5,102.1,19.3,101.6,18.9,101.1z"/>
	<path class="st0" d="M10.1,95.6L10,90.8c0-1.1,0.2-2.1,0.6-3c0.4-0.9,1-1.6,1.8-2c0.8-0.5,1.7-0.7,2.7-0.8c1,0,1.9,0.2,2.7,0.7
		c0.8,0.5,1.4,1.1,1.8,2c0.4,0.9,0.7,1.8,0.7,3l0.1,4.7L10.1,95.6z M18.4,90.8c0-1-0.3-1.9-0.9-2.5c-0.6-0.6-1.4-0.9-2.4-0.9
		c-1,0-1.8,0.3-2.3,1c-0.6,0.6-0.8,1.5-0.8,2.5l0,2.2l6.4-0.1L18.4,90.8z"/>
	<path class="st0" d="M12.5,80.4l-0.5,3.3l-1.9-0.3l1.2-8.9l1.9,0.3L12.9,78l8.3,1.2l-0.3,2.4L12.5,80.4z"/>
	<path class="st0" d="M23.7,68.6l-3.3,1.1l0,0.1l-0.6,2l2.8,0.8l-0.7,2.3l-10-2.8l1.2-4.3c0.3-0.9,0.6-1.6,1.1-2.2
		c0.5-0.6,1-0.9,1.7-1.1c0.6-0.2,1.3-0.2,2.1,0s1.3,0.6,1.8,1.1c0.4,0.5,0.7,1.1,0.8,1.9l3.8-1.3L23.7,68.6z M15.9,67
		c-0.4,0.3-0.7,0.8-0.9,1.5l-0.5,1.9l3.5,1l0.5-1.9c0.2-0.7,0.2-1.3,0-1.7c-0.2-0.4-0.6-0.7-1.1-0.9C16.7,66.7,16.3,66.7,15.9,67z"
		/>
	<path class="st0" d="M24.4,63.4c-1.1,0.4-2.3,0.3-3.7-0.4l-5.3-2.4l1-2.2l5.2,2.4c1.7,0.8,2.8,0.5,3.5-0.9c0.3-0.7,0.4-1.3,0.1-1.8
		c-0.2-0.5-0.8-1-1.7-1.4l-5.2-2.4l1-2.1l5.3,2.4c1.4,0.6,2.3,1.5,2.7,2.6c0.4,1.1,0.3,2.3-0.3,3.7C26.3,62.1,25.5,63,24.4,63.4z"/>
	<path class="st0" d="M30.6,52.7c-0.9,0.5-1.8,0.7-2.7,0.6c-0.9,0-1.8-0.4-2.7-0.9c-0.9-0.6-1.5-1.3-1.9-2.1
		c-0.4-0.9-0.6-1.8-0.5-2.7c0.1-1,0.4-1.9,1-2.8c0.5-0.7,1.1-1.3,1.8-1.8c0.7-0.4,1.4-0.7,2.1-0.8l0.3,2.1c-1.1,0.1-1.9,0.6-2.5,1.5
		c-0.4,0.5-0.6,1.1-0.6,1.7c0,0.6,0.1,1.1,0.3,1.6c0.3,0.5,0.7,1,1.2,1.3c0.5,0.4,1.1,0.6,1.7,0.6c0.6,0,1.1-0.1,1.6-0.3
		c0.5-0.3,0.9-0.7,1.3-1.2c0.6-0.9,0.7-1.8,0.4-2.8l2-0.5c0.2,0.7,0.3,1.5,0.1,2.3c-0.1,0.8-0.5,1.5-1,2.3
		C32.1,51.5,31.4,52.2,30.6,52.7z"/>
	<path class="st0" d="M35.3,40.6l0.1,2l1.9,1.8l-1.6,1.8l-7.6-7l1.6-1.8l3.6,3.3l-0.5-6.7l1.8-2l0.5,6.3l7.3,0.5l-1.9,2.1L35.3,40.6
		z"/>
	<path class="st1" d="M44.6,33.5c-0.5-0.1-0.9-0.3-1.2-0.7c-0.3-0.4-0.5-0.9-0.4-1.4c0.1-0.5,0.3-0.9,0.7-1.2
		c0.4-0.3,0.9-0.4,1.4-0.4c0.5,0.1,0.9,0.3,1.2,0.7c0.3,0.4,0.5,0.9,0.4,1.4c-0.1,0.5-0.3,0.9-0.7,1.2
		C45.6,33.4,45.1,33.5,44.6,33.5z"/>
</g>
</svg>
