<svg width="64" height="64" viewBox="0 0 64 64" fill="none" xmlns="http://www.w3.org/2000/svg">
<path d="M50.6587 53.3332C27.9093 53.3652 10.6427 35.8932 10.6667 13.3412C10.6667 11.8665 11.8613 10.6665 13.3333 10.6665H20.3733C21.6933 10.6665 22.816 11.6372 23.0107 12.9438C23.4749 16.0773 24.3864 19.128 25.7173 22.0025L25.992 22.5945C26.1765 22.9929 26.2162 23.4431 26.1042 23.8677C25.9922 24.2922 25.7356 24.6643 25.3787 24.9198C23.1973 26.4772 22.3653 29.6105 24.064 32.0532C26.2026 35.1287 28.8718 37.7988 31.9467 39.9385C34.392 41.6345 37.5253 40.8025 39.08 38.6238C39.3353 38.2658 39.7077 38.0082 40.1328 37.8957C40.5579 37.7832 41.009 37.8229 41.408 38.0078L41.9973 38.2798C44.872 39.6132 47.9227 40.5252 51.056 40.9892C52.3627 41.1838 53.3333 42.3065 53.3333 43.6292V50.6665C53.3333 51.0169 53.2643 51.3639 53.1301 51.6876C52.9959 52.0113 52.7992 52.3054 52.5513 52.5531C52.3034 52.8007 52.0091 52.9971 51.6853 53.1309C51.3615 53.2648 51.0144 53.3335 50.664 53.3332H50.6587Z" fill="#FBFBFB"/>
</svg>
