<?xml version="1.0" encoding="utf-8"?>
<!-- Generator: Adobe Illustrator 23.0.1, SVG Export Plug-In . SVG Version: 6.00 Build 0)  -->
<svg version="1.1" id="Calque_1" xmlns="http://www.w3.org/2000/svg" xmlns:xlink="http://www.w3.org/1999/xlink" x="0px" y="0px"
	 viewBox="0 0 40 40" style="enable-background:new 0 0 40 40;" xml:space="preserve">
<style type="text/css">
	.st0{fill:#EF7D19;}
</style>
<g>
	<path class="st0" d="M19.3,7.3c-0.5-0.3-1-0.6-1.5-1.1c-1.4-1.3-1.4-3.3-0.1-4.7c1.3-1.3,3.5-1.2,4.7,0.1c1.2,1.3,1.1,3.5-0.3,4.7
		c-0.5,0.4-1,0.7-1.4,0.9c0.6,1.7,1.3,3.3,1.8,4.9c1.1,3.2,3.2,5.6,6.1,7.3c1.2,0.7,2.4,1.3,3.6,2c3.4,1.9,6,4.6,6.7,8.5
		c0.3,1.7,0.2,3.6,0,5.4c-0.3,2.3-1.8,3.5-4,3.8c-0.6,0.1-1.1,0.1-1.7,0.1c-8.9,0-17.8,0-26.8,0c-0.4,0-0.8,0-1.1,0
		c-2.8-0.3-4-1.6-4.5-4.4c-1.2-5.9,2.3-10.9,7-13.5c1.3-0.7,2.5-1.4,3.7-2.2c3-2,5-4.8,6.1-8.2C18.2,9.8,18.8,8.7,19.3,7.3z"/>
</g>
</svg>
