<svg width="40" height="40" viewBox="0 0 40 40" fill="none" xmlns="http://www.w3.org/2000/svg">
<path d="M38.9894 5.82339L21.0383 38.0119C20.6677 38.6764 19.7155 38.6803 19.3393 38.019L1.03235 5.82649C0.622517 5.1058 1.23709 4.23284 2.05152 4.37881L20.0218 7.59979C20.1364 7.62034 20.2538 7.62014 20.3684 7.59919L37.9628 4.38343C38.7745 4.23508 39.392 5.10128 38.9894 5.82339Z" fill="url(#paint0_linear_534_58)"/>
<path d="M28.5819 0.154038L15.2976 2.76425C15.0793 2.80715 14.9176 2.9927 14.9045 3.21537L14.0873 17.0549C14.0681 17.3809 14.3666 17.6339 14.6839 17.5605L18.3824 16.7046C18.7285 16.6246 19.0412 16.9302 18.97 17.2792L17.8712 22.6748C17.7973 23.038 18.1373 23.3485 18.4909 23.2408L20.7753 22.5448C21.1295 22.437 21.4697 22.7484 21.3948 23.1119L19.6486 31.5873C19.5393 32.1174 20.2425 32.4065 20.5358 31.952L20.7317 31.6484L31.5565 9.98584C31.7377 9.62313 31.4252 9.20955 31.0279 9.28642L27.2209 10.0232C26.8631 10.0924 26.5587 9.75828 26.6597 9.40729L29.1445 0.76964C29.2455 0.418059 28.9401 0.083676 28.5819 0.154038Z" fill="url(#paint1_linear_534_58)"/>
<defs>
<linearGradient id="paint0_linear_534_58" x1="0.585376" y1="3.22845" x2="23.007" y2="33.5947" gradientUnits="userSpaceOnUse">
<stop stop-color="#41D1FF"/>
<stop offset="1" stop-color="#BD34FE"/>
</linearGradient>
<linearGradient id="paint1_linear_534_58" x1="18.9903" y1="0.862706" x2="23.0537" y2="28.6603" gradientUnits="userSpaceOnUse">
<stop stop-color="#FFEA83"/>
<stop offset="0.0833333" stop-color="#FFDD35"/>
<stop offset="1" stop-color="#FFA800"/>
</linearGradient>
</defs>
</svg>
